<?xml version="1.0" encoding="UTF-8" standalone="no"?>
<!-- Created with Inkscape (http://www.inkscape.org/) -->

<svg
   xmlns:dc="http://purl.org/dc/elements/1.1/"
   xmlns:cc="http://creativecommons.org/ns#"
   xmlns:rdf="http://www.w3.org/1999/02/22-rdf-syntax-ns#"
   xmlns:svg="http://www.w3.org/2000/svg"
   xmlns="http://www.w3.org/2000/svg"
   xmlns:sodipodi="http://sodipodi.sourceforge.net/DTD/sodipodi-0.dtd"
   xmlns:inkscape="http://www.inkscape.org/namespaces/inkscape"
   width="1305.7054"
   height="1366.8562"
   id="svg3029"
   version="1.1"
   inkscape:version="0.48.5 r10040"
   sodipodi:docname="fc-whitesvg.svg">
  <defs
     id="defs3031" />
  <sodipodi:namedview
     id="base"
     pagecolor="#000000"
     bordercolor="#666666"
     borderopacity="1.0"
     inkscape:pageopacity="0"
     inkscape:pageshadow="2"
     inkscape:zoom="0.49497475"
     inkscape:cx="821.29003"
     inkscape:cy="925.78576"
     inkscape:document-units="px"
     inkscape:current-layer="layer1"
     showgrid="false"
     fit-margin-top="0"
     fit-margin-left="0"
     fit-margin-right="0"
     fit-margin-bottom="0"
     inkscape:window-width="1278"
     inkscape:window-height="1022"
     inkscape:window-x="0"
     inkscape:window-y="0"
     inkscape:window-maximized="0" />
  <metadata
     id="metadata3034">
    <rdf:RDF>
      <cc:Work
         rdf:about="">
        <dc:format>image/svg+xml</dc:format>
        <dc:type
           rdf:resource="http://purl.org/dc/dcmitype/StillImage" />
        <dc:title></dc:title>
      </cc:Work>
    </rdf:RDF>
  </metadata>
  <g
     inkscape:label="Layer 1"
     inkscape:groupmode="layer"
     id="layer1"
     transform="translate(787.13847,316.7802)">
    <path
       id="path3066"
       style="fill:#ffffff;stroke:#ffffff"
       d="m -180.16578,1049.6466 c -0.825,-0.1668 -8.925,-0.8247 -18,-1.462 -32.00743,-2.2479 -67.03756,-7.9503 -98,-15.953 -16.52473,-4.2711 -30.56494,-8.4433 -40.5,-12.035 -27.36962,-9.8946 -40.94142,-15.6597 -59.5,-25.27469 -22.01297,-11.4046 -48.79178,-28.4186 -58.61337,-37.2401 -0.61236,-0.55 -3.08736,-2.5734 -5.5,-4.4964 -7.22279,-5.7569 -30.79652,-29.1052 -35.24427,-34.9072 -2.2783,-2.972 -5.71736,-7.4254 -7.64236,-9.8965 -1.925,-2.4711 -3.94887,-5.2145 -4.49749,-6.0964 -0.54862,-0.8819 -1.92345,-2.9535 -3.05519,-4.6035 -5.29589,-7.7211 -17.44732,-30.8814 -17.44732,-33.2541 0,-0.7557 -1.04053,-3.7077 -2.31228,-6.56 -2.68604,-6.0241 -4.10394,-10.8308 -5.65962,-19.1859 -0.61444,-3.3 -1.59849,-8.25 -2.18677,-11 -0.58829,-2.75 -1.19432,-12.875 -1.34674,-22.5 -0.26766,-16.9024 0.79014,-28.3611 3.55412,-38.5 0.59974,-2.2 1.3055,-5.125 1.56835,-6.5 0.93906,-4.9123 2.75364,-10.5821 5.05015,-15.7797 1.28304,-2.9038 2.33279,-5.7184 2.33279,-6.2547 0,-2.3111 15.09872,-30.2967 18.09009,-33.5302 1.05045,-1.1354 1.90991,-2.4146 1.90991,-2.8426 0,-1.1506 6.4995,-9.6061 14.93688,-19.43206 18.64161,-21.7095 43.00365,-42.6539 67.56312,-58.08488 3.85,-2.419 8.575,-5.39781 10.5,-6.61959 14.60545,-9.26995 45.02054,-24.08523 63.97427,-31.16205 14.14811,-5.28253 17.52222,-6.31774 18.88605,-5.79439 1.20597,0.46278 1.31954,6.19235 0.75864,38.27218 -0.5969,34.13933 -0.82417,37.84963 -2.3893,39.00703 -0.95131,0.7035 -6.79698,4.6103 -12.99037,8.6818 -13.89785,9.1364 -20.08072,14.2119 -32.23929,26.46506 -19.67417,19.8274 -30.63239,38.6976 -36.62808,63.0741 -2.70839,11.0114 -2.53151,30.5847 0.38407,42.5 3.17448,12.9733 5.62721,19.3844 11.37896,29.743 7.17838,12.928 14.67065,22.6924 26.30315,34.2803 12.30046,12.2532 17.21814,16.3053 31.36243,25.8422 53.69449,36.204 128.66182,56.5588 209.19947,56.801 65.750004,0.1977 125.793004,-12.3904 176.000004,-36.8987 27.4237,-13.3868 53.4108,-31.9427 68.206296,-48.7023 1.4884,-1.686 3.3573,-3.7405 4.1531,-4.5655 2.2271,-2.3088 10.5838,-13.8416 12.5789,-17.3598 9.5294,-16.8034 10.423,-18.8749 13.8654,-32.1402 0.5709,-2.2 1.5396,-5.9056 2.1527,-8.2347 2.4053,-9.1376 1.2023,-33.5943 -2.069,-42.0624 -0.4881,-1.2633 -0.8874,-3.1819 -0.8874,-4.2635 0,-1.0816 -0.3975,-2.7479 -0.8833,-3.703 -0.4859,-0.9551 -1.327,-2.8615 -1.8693,-4.2365 -7.4963,-19.0083 -19.7665,-36.7754 -35.911996,-52 -9.5679,-9.02216 -14.9567,-13.31496 -27.7582,-22.11266 l -11.0772,-7.6127 -0.6609,-16.8873 c -0.3635,-9.28802 -0.8514,-27.61533 -1.0843,-40.72737 l -0.4235,-23.84006 3.0843,0.47543 c 3.0629,0.47213 18.4209,6.15702 26.0844,9.65535 2.2,1.00428 6.7,3.0606 10,4.56961 22.769796,10.41209 35.268396,17.33635 54.780596,30.34883 5.4687,3.647 11.0361,7.35582 12.37189,8.24183 5.4317,3.60258 24.3934,19.95318 32.9228,28.38908 9.0523,8.9531 18.71702,19.8215 23.56512,26.49996 5.5562,7.6539 11.8596,16.9144 11.8596,17.4232 0,0.2959 1.575,3.0001 3.5,6.0093 1.925,3.0093 3.5,5.952 3.5,6.5393 0,0.5874 1.0227,2.7465 2.2727,4.7981 2.8295,4.644 3.9787,7.2652 6.2388,14.2301 0.9816,3.025 2.0871,5.95 2.4565,6.5 0.8356,1.244 2.7807,7.9972 3.4564,12.0001 0.2785,1.65 1.3042,6.6 2.2794,11 1.4051,6.3396 1.7697,12.566 1.7564,30 -0.016,20.8719 -0.4619,25.5114 -3.4611,36 -0.6291,2.2 -1.5794,6.4383 -2.1117,9.4185 -0.5324,2.9802 -2.2999,8.1485 -3.9277,11.4851 -1.6278,3.3367 -2.9597,6.6825 -2.9597,7.4353 0,0.7527 -1.5253,4.3594 -3.3896,8.0149 -1.8643,3.6554 -3.6537,7.3212 -3.9766,8.1462 -0.3228,0.825 -2.6177,4.65 -5.0996,8.5 -2.482,3.85 -5.305,8.4047 -6.2734,10.1215 -0.9685,1.7168 -3.1108,4.8074 -4.7608,6.8679 -1.65,2.0606 -5.1771,6.5059 -7.8379,9.8785 -8.67472,10.9953 -29.01682,30.8892 -42.57012,41.6321 -16.47039,13.0552 -42.51819,29.837 -58.59199,37.749 -8.6886,4.2768 -27.878696,13.40269 -30.999996,14.74209 -9.0316,3.8757 -10.653,4.5089 -11.5448,4.5089 -0.5374,0 -2.8846,0.8793 -5.2161,1.9541 -12.1081,5.5814 -47.946,16.5809 -71.2391003,21.8649 -19.2996997,4.378 -34.6526997,7.1992 -49.9999997,9.1875 -8.8,1.1401 -19.375,2.5118 -23.5,3.0482 -16.6258,2.1621 -34.875604,2.9397 -66.395224,2.8293 -18.20763,-0.064 -33.77978,-0.2524 -34.60478,-0.4192 z m 78.6048,-2.4498 c 7.092404,-0.5417 16.270204,-1.4238 20.395204,-1.9603 4.125,-0.5364 14.7,-1.9081 23.5,-3.0482 35.588,-4.6107 73.8399,-13.9682 112.5,-27.5208 2.475,-0.8676 6.4076,-2.4569 8.7391,-3.5316 2.3315,-1.0748 4.6787,-1.9541 5.2161,-1.9541 0.8918,0 2.5132,-0.6332 11.5448,-4.5089 3.1213,-1.3394 22.311396,-10.46529 30.999996,-14.74209 16.0738,-7.912 42.1216,-24.6938 58.59199,-37.749 13.5533,-10.7429 33.8954,-30.6368 42.5701,-41.6321 2.66082,-3.3726 6.18792,-7.8179 7.83792,-9.8785 1.65,-2.0605 3.7923,-5.1511 4.7608,-6.8679 0.9684,-1.7168 3.7914,-6.2715 6.2734,-10.1215 2.4819,-3.85 4.7768,-7.675 5.0996,-8.5 0.3229,-0.825 2.1123,-4.4908 3.9766,-8.1462 1.8643,-3.6555 3.3896,-7.2622 3.3896,-8.0149 0,-0.7528 1.3319,-4.0986 2.9597,-7.4353 1.6278,-3.3366 3.3953,-8.5049 3.9277,-11.4851 0.5323,-2.9802 1.4826,-7.2185 2.1117,-9.4185 0.6291,-2.2 1.6606,-6.25 2.2922,-9 1.5374,-6.6938 1.5088,-43.4822 -0.039,-50 -0.653,-2.75 -1.6846,-7.7 -2.2925,-11 -1.2926,-7.0176 -3.0397,-13.5826 -3.9919,-15.0001 -0.3694,-0.55 -1.4749,-3.475 -2.4565,-6.5 -2.2601,-6.9649 -3.4093,-9.5861 -6.2388,-14.2301 -1.25,-2.0516 -2.2727,-4.2107 -2.2727,-4.7981 0,-0.5873 -1.575,-3.53 -3.5,-6.5393 -1.925,-3.0092 -3.5,-5.7134 -3.5,-6.0093 0,-0.5088 -6.3034,-9.7693 -11.8596,-17.4232 -4.8481,-6.6785 -14.51282,-17.54686 -23.56512,-26.49996 -8.5294,-8.4359 -27.4911,-24.7865 -32.92279,-28.38908 -1.3358,-0.88601 -6.9032,-4.59483 -12.3719,-8.24183 -19.5122,-13.01248 -32.0108,-19.93674 -54.780596,-30.34883 -3.3,-1.50901 -7.8,-3.56533 -10,-4.56961 -2.2,-1.00428 -8.05,-3.36864 -13,-5.25413 -4.95,-1.88549 -9.675,-3.71869 -10.5,-4.07379 -1.3126,-0.56498 -1.4599,2.07266 -1.1789,21.11582 0.1766,11.9688 0.6266,29.36073 1,38.64875 l 0.6789,16.8873 11.0772,7.6127 c 24.1847,16.62066 40.481196,32.80046 52.684096,52.30696 5.2677,8.4206 7.7096,13.44 12.7972,26.3057 0.435,1.1 1.0699,3.3501 1.4109,5.0001 0.3411,1.65 1.0699,4.8 1.6197,7 3.7789,15.1227 2.7662,36.7854 -2.5479,54.5 -0.9075,3.025 -1.9109,6.625 -2.2298,8 -0.3189,1.375 -0.9046,2.95 -1.3016,3.5 -0.397,0.55 -2.0703,3.475 -3.7185,6.5 -1.6482,3.025 -3.9276,7.1381 -5.0653,9.1402 -2.2311,3.9264 -10.5061,15.4127 -12.8666,17.8598 -0.7958,0.825 -2.6647,2.8795 -4.1531,4.5655 -4.9318,5.5865 -19.098996,18.2767 -26.456896,23.6987 -54.905,40.4591 -132.5184,62.2885 -220.249404,61.947 -82.25201,-0.3202 -156.62548,-20.3858 -210.69947,-56.8457 -14.14429,-9.5369 -19.06197,-13.589 -31.36243,-25.8422 -11.6325,-11.5879 -19.12477,-21.3523 -26.30315,-34.2803 -5.74153,-10.3402 -8.19058,-16.7349 -11.39104,-29.743 -2.97724,-12.1009 -3.16849,-35.2535 -0.3841,-46.5 4.18336,-16.8973 11.53608,-32.5988 21.54099,-46.0001 6.10035,-8.1713 21.33771,-23.955 30.15008,-31.23116 5.58827,-4.6141 21.34465,-15.5268 28.0736,-19.4435 l 3.62449,-2.1097 0.74282,-35.65718 c 0.40855,-19.61142 0.48943,-35.91054 0.17972,-36.22025 -0.55833,-0.55832 -3.10177,0.24422 -15.69724,4.95301 -19.00647,7.10553 -49.37825,21.90118 -63.97427,31.16515 -1.925,1.22178 -6.65,4.20059 -10.5,6.61959 -24.55947,15.43098 -48.92151,36.37538 -67.56312,58.08484 -8.43738,9.826 -14.93688,18.2815 -14.93688,19.4321 0,0.428 -0.85946,1.7072 -1.90991,2.8426 -2.99127,3.2335 -18.08999,31.2191 -18.08999,33.5302 0,0.5363 -1.04975,3.3509 -2.33279,6.2547 -2.33237,5.2788 -4.17611,11.0731 -5.02103,15.7797 -0.24684,1.375 -1.16556,4.975 -2.04161,8 -2.56221,8.8473 -4.19619,39.1179 -2.68378,49.7184 0.6891,4.8299 1.64592,9.776 2.12627,10.9913 0.48036,1.2154 1.15962,4.5904 1.50947,7.5 0.65646,5.4596 3.53065,14.8136 6.01505,19.5758 0.77885,1.493 1.41887,3.4165 1.42226,4.2745 0.01,2.5383 11.95343,25.4213 17.45348,33.44 1.13174,1.65 2.50657,3.7216 3.05519,4.6035 0.54862,0.8819 2.57249,3.6253 4.49749,6.0964 1.925,2.4711 5.36406,6.9245 7.64236,9.8965 4.44775,5.802 28.02148,29.1503 35.24427,34.9072 2.41264,1.923 4.88764,3.9464 5.5,4.4964 9.82159,8.8215 36.6004,25.8355 58.61337,37.2401 18.55858,9.61499 32.13038,15.38009 59.5,25.27469 9.93506,3.5917 23.97527,7.7639 40.5,12.035 30.96244,8.0027 65.99257,13.7051 98,15.953 9.075,0.6373 17.175,1.2952 18,1.462 3.87177,0.7826 65.1829,0.4227 76.6048,-0.4498 z M -134.1306,915.24751 c -1.17365,-2.193 -1.42217,-52.9462 -0.37169,-75.9097 l 0.65617,-14.344 9.09014,-7.339 c 8.8113,-7.1139 33.931404,-26.9699 63.476304,-50.1743 7.9123,-6.2143 14.9998,-11.2987 15.75,-11.2987 1.066,0 1.3826,2.4573 1.4496,11.25 0.047,6.1875 0.4243,26.775 0.8381,45.75 0.8476,38.8719 1.156,36.9053 -6.771,43.1873 -2.559,2.028 -10.5028,8.4575 -17.6528,14.2877 -53.717604,43.8023 -57.314804,46.525 -61.468904,46.525 -2.8924,0 -4.23995,-0.5217 -4.99592,-1.9343 z m 29.21072,-18.028 c 12.239804,-9.8792 28.104104,-22.7324 35.254104,-28.5627 7.15,-5.8302 15.0887,-12.2597 17.6415,-14.2877 2.5528,-2.028 5.2148,-4.5873 5.9154,-5.6873 1.3903,-2.1826 1.4465,-13.7501 0.302,-62.1543 l -0.642,-27.1542 -11.1084,8.7257 c -25.743,20.2212 -56.731804,44.7274 -65.198704,51.5596 l -9.09014,7.3352 -0.65617,14.344 c -1.04473,22.8378 -0.80242,69.7159 0.37169,71.9097 0.56935,1.0639 1.91752,1.9343 2.99592,1.9343 1.07841,0 11.9751,-8.083 24.2148,-17.9623 z m -55.38589,14.2868 c -3.49801,-2.5716 -11.79452,-9.4341 -18.4367,-15.25 -6.64218,-5.816 -20.59218,-17.9617 -31,-26.9905 -10.40782,-9.0287 -19.58456,-17.0186 -20.39276,-17.7551 -1.56347,-1.4249 -1.59569,-16.6368 -0.15109,-71.3171 0.52261,-19.7814 0.85796,-23.5337 2.12492,-23.7761 1.33705,-0.2557 11.42101,8.1819 70.82813,59.2643 l 15.11855,13 0.0315,6.5 c 0.0173,3.575 -0.46496,22.25 -1.07176,41.5 -1.22515,38.8665 -1.3426,39.5 -7.32385,39.5 -2.43566,0 -5.1261,-1.2932 -9.72695,-4.6755 z m 12.53071,0.4255 c 1.12834,-1.7669 1.69576,-10.6939 2.64291,-41.5801 0.68286,-22.268 0.82872,-39.6636 0.33623,-40.0986 -3.17691,-2.8066 -41.67748,-35.97 -60.36986,-52.0011 l -22.5,-19.2965 -0.62879,22.8631 c -1.27318,46.2933 -1.19177,66.4818 0.27342,67.8062 0.74546,0.6738 9.87086,8.6123 20.27868,17.641 10.40782,9.0288 24.35782,21.1745 31,26.9905 13.59869,11.9071 24.12738,19.9255 26.16365,19.9255 0.75181,0 2.0135,-1.0125 2.80376,-2.25 z m -100.89983,-76.5216 c -2.75501,-2.6006 -16.44144,-14.6284 -30.41428,-26.7284 -13.97285,-12.1 -30.2798,-26.2338 -36.23766,-31.4085 -7.71834,-6.7038 -11.06375,-10.2973 -11.63694,-12.5 -0.44244,-1.7003 -0.4841,-16.5915 -0.0926,-33.0916 0.39154,-16.5 0.75209,-36.4125 0.80122,-44.25 0.0807,-12.87766 0.25787,-14.24826 1.83934,-14.23276 0.9625,0.01 7.89389,5.297 15.40309,11.74996 7.50921,6.4531 26.5053,22.7578 42.21355,36.2328 l 28.56044,24.5 0.0324,34.5001 c 0.0178,18.975 -0.26022,40.2375 -0.61787,47.25 -0.61609,12.08 -0.7604,12.7489 -2.74594,12.7284 -1.15263,-0.012 -4.34978,-2.1493 -7.10479,-4.75 z m 8.35519,-52.2284 0.081,-35.5 -28.55967,-24.5001 c -15.70782,-13.475 -34.47892,-29.5751 -41.71354,-35.7779 l -13.15387,-11.27796 -0.62994,21.27796 c -0.91198,30.8047 -1.09956,65.0169 -0.36694,66.9258 0.34783,0.9063 5.47799,5.8563 11.40036,11 5.92237,5.1437 22.20028,19.2522 36.17313,31.3522 13.97284,12.1 27.65927,24.1127 30.41428,26.695 l 5.00911,4.6949 0.63254,-9.6949 c 0.3479,-5.3323 0.669,-25.67 0.71354,-45.195 z m 205.835524,54.75 c -0.435,-1.8286 -1.1786,-86.5005 -0.7937,-90.3799 0.062,-0.6215 2.6996,-3.0704 5.8621,-5.4422 3.1625,-2.3717 7.775,-5.9979 10.25,-8.0582 2.475,-2.0603 17.3249997,-13.9766 33,-26.4805 15.675,-12.504 30.2685,-24.2319 32.43,-26.06186 2.1615,-1.8301 4.8879,-3.3274 6.0588,-3.3274 2.1205,0 2.1336,0.1709 3.3946,44.24996 0.6962,24.3375 0.971,45.0066 0.6106,45.9313 -0.7197,1.8467 -7.3539,7.3417 -48.9940003,40.5808 -15.4,12.293 -29.5441997,23.788 -31.4314997,25.5444 -6.4415,5.9949 -9.536,7.0208 -10.3869,3.4436 z m 8.3184,-5.3935 c 1.925,-1.8001 16.1,-13.3241 31.4999997,-25.6091 41.2893003,-32.9376 48.2739003,-38.7157 48.9599003,-40.5035 0.3416,-0.8901 0.064,-20.6325 -0.6157,-43.8717 l -1.2367,-42.25316 -2.2145,1.6905 c -2.3539,1.79686 -59.4743003,47.57996 -65.393,52.41376 -1.925,1.5721 -6.7625,5.3695 -10.75,8.4387 -3.9875,3.0691 -7.2858,6.0883 -7.3295,6.7092 -0.3563,5.0607 0.348,85.1649 0.7582,86.234 0.6296,1.6406 1.6575,1.1123 6.3213,-3.2487 z m -120.531744,-14.4078 c -0.35737,-0.5783 -3.71129,-3.6158 -7.45316,-6.75 -3.74187,-3.1343 -11.46353,-9.7656 -17.15925,-14.7364 -16.49513,-14.3954 -40.63444,-35.2219 -49.72028,-42.8968 l -8.36444,-7.0656 0.62482,-29.5 c 1.16187,-54.85566 1.66046,-64.00266 3.48738,-63.97896 1.4583,0.019 11.93839,8.4205 54.11667,43.38366 7.425,6.1549 16.89084,13.9317 21.03519,17.2817 4.14436,3.3501 8.1364,6.8154 8.87119,7.7008 1.09681,1.3216 1.20309,10.2034 0.59364,49.6114 l -0.74235,48.0015 -2.31982,0 c -1.2759,0 -2.61221,-0.4731 -2.96959,-1.0513 z m 4.27473,-81.3833 -0.24299,-12.9344 -6.06215,-5.0656 c -3.33418,-2.786 -13.23418,-10.9734 -22,-18.1941 -8.76582,-7.2208 -24.46007,-20.14856 -34.87612,-28.72836 -10.41605,-8.5799 -19.07792,-15.4601 -19.24861,-15.2894 -0.1707,0.1706 -0.81326,20.0517 -1.42792,44.17996 l -1.11757,43.8698 2.86619,2.4211 c 4.82882,4.0792 35.19601,30.2049 44.80218,38.5447 4.9852,4.328 13.30566,11.528 18.4899,16 5.18425,4.472 11.25925,9.7873 13.5,11.8117 l 4.0741,3.6809 0.74299,-33.6809 c 0.40864,-18.5244 0.63364,-39.5014 0.5,-46.6154 z m 8.25701,31.006 c 0,-43.8333 0.13266,-47.562 1.75,-49.1878 0.9625,-0.9676 8.5,-6.8315 16.75,-13.0309 8.25,-6.1995 26.600304,-20.065 40.778404,-30.81226 14.1781,-10.7473 26.3927,-19.5405 27.1435,-19.5405 1.5506,0 2.1347,11.7744 3.0794,62.06876 l 0.5553,29.5687 -25.2783,20.0784 c -48.626904,38.6237 -61.231194,48.2842 -62.997934,48.2842 -1.68214,0 -1.78037,-2.6169 -1.78037,-47.4286 z m 26.6917,25.6786 c 13.102904,-10.3125 32.226404,-25.4369 42.496604,-33.6097 l 18.6732,-14.8599 -0.5359,-33.1402 c -0.2948,-18.2272 -0.8261,-37.70906 -1.1807,-43.29306 l -0.6449,-10.1528 -25,18.9395 c -13.75,10.41666 -31.750004,24.01336 -40.000004,30.21496 -8.25,6.2016 -15.7875,12.0672 -16.75,13.0348 -1.6146,1.623 -1.75,5.2354 -1.75,46.6878 0,24.7107 0.19534,44.9286 0.43409,44.9286 0.23875,0 11.15471,-8.4375 24.25761,-18.75 z m 71.807004,-56.5001 c -0.2412,-0.6875 -0.5646,-21.5158 -0.7186,-46.2852 l -0.2801,-45.03516 5,-3.9284 c 2.75,-2.1606 16.9095,-13.11772 31.46559971,-24.3491 C 14.355924,606.10246 29.813424,594.04858 34.149824,590.54745 c 5.5269,-4.46239 8.7301,-6.3657 10.7129,-6.3657 3.2072,0 5.7531,2.10844 6.4237,5.31993 0.5701,2.72988 2.8776,78.73957 2.3986,79.00957 -0.1929,0.1087 -2.6008,2.0289 -5.3508,4.267 -31.7381,25.82996 -81.6495,65.40346 -82.4892,65.40346 -0.5905,0 -1.2709,-0.5625 -1.5121,-1.25 z m 41.0012997,-33.2618 c 19.8000003,-15.8544 38.2500003,-30.65656 41.0000003,-32.89356 2.75,-2.2371 5.1353,-4.1339 5.3008,-4.2151 0.7849,-0.3854 -2.0746,-74.2165 -2.9652,-76.55764 -1.2502,-3.2866 -3.5388,-4.28928 -5.9269,-2.59664 -0.9892,0.70113 -8.9443,6.89978 -17.6779,13.77478 -8.7336,6.875 -25.83980029,20.15 -38.0138,29.5 -13.6752,10.503 -21.9591,17.509 -21.6757,18.3318 0.2523,0.7325 0.4587,20.4897 0.4587,43.90496 0,40.4498 0.087,42.4985 1.75,41.0754 0.9625,-0.8237 17.95,-14.4695 37.7499997,-30.324 z m -255.0000037,25.3559 c -4.4,-3.8616 -12.31207,-10.6938 -17.58238,-15.1826 -5.2703,-4.4888 -20.50439,-17.6115 -33.85352,-29.1615 l -24.27115,-20.99996 0.67761,-40 c 0.46427,-27.40673 1.05005,-40.78708 1.86062,-42.5 0.88996,-1.88069 2.08697,-2.5755 4.83202,-2.80477 3.90818,-0.32641 -1.05677,-4.22793 73.3368,57.62897 6.67928,5.5537 8.93755,8.0239 8.75781,9.5796 -0.1332,1.1529 -0.49562,20.9962 -0.80537,44.09616 -0.30975,23.1 -0.77184,43.0125 -1.02686,44.25 -0.75425,3.66 -3.41061,2.5672 -11.92558,-4.9059 z m 10.74435,-40.8441 0.47969,-43.49996 -8.5321,-7 c -4.69265,-3.85 -22.22563,-18.38682 -38.96217,-32.30404 -17.95555,-14.93087 -31.1033,-25.17438 -32.07231,-24.98777 -3.52548,0.67895 -3.94819,4.62078 -4.6425,43.29181 l -0.68226,38 24.25128,21 c 13.33819,11.54996 28.56334,24.67846 33.83364,29.17436 5.27031,4.4959 12.95738,11.0854 17.08238,14.6433 4.125,3.558 7.78455,6.1795 8.13233,5.8257 0.34778,-0.3539 0.84819,-20.2184 1.11202,-44.1434 z m 81.04141,13.2082 c -54.54443,-44.81546 -67.28576,-55.83146 -67.28576,-58.17416 0,-1.5032 32.21346,-27.84502 64.5,-52.74342 20.32027,-15.67038 21.3979,-16.11383 29.15023,-11.99539 5.78417,3.07287 80.781674,66.53701 81.149974,68.67051 0.1693,0.9804 -1.1429,3.0029 -3.0081,4.6366 -4.1147,3.6039 -71.194204,55.70336 -77.441784,60.14766 -7.42811,5.2841 -8.14119,5.0063 -27.06456,-10.5418 z m 25.06628,8.5418 c 8.03236,-5.7118 77.485764,-59.84956 78.776964,-61.40546 0.819,-0.9867 0.8944,-1.7266 0.2214,-2.1707 -0.5616,-0.3706 -17.7898,-14.8488 -38.2849,-32.1738 -20.495204,-17.325 -39.276904,-32.5377 -41.737204,-33.80601 l -4.47328,-2.306 -3.50751,2.06948 c -7.76661,4.58241 -79.84751,61.59733 -79.84751,63.15813 0,1.085 10.50011,10.337 32,28.1962 33.41569,27.75726 50.60085,41.68816 51.42657,41.68816 0.47028,0 2.91174,-1.4625 5.42547,-3.25 z m 77.647964,-76.70347 c -5.775,-4.90247 -25.125,-21.13843 -43,-36.07992 -17.875004,-14.94149 -32.625424,-27.90889 -32.778714,-28.81646 -0.18464,-1.09319 4.83461,-5.70015 14.87181,-13.65011 8.3328,-6.6 28.032904,-22.2375 43.778004,-34.75 15.745,-12.5125 29.3027,-22.73217 30.1281,-22.71038 1.846,0.0487 81.569,65.41894 84.2968,69.12051 1.457,1.97714 1.7972,3.52957 1.325,6.04648 -0.5246,2.79629 -2.333,4.71998 -10.3781,11.03985 -5.3586,4.20942 -24.3679003,19.14328 -42.2429003,33.18635 -17.8749997,14.04307 -33.1749997,25.53159 -33.9999997,25.53009 -0.825,0 -6.225,-4.0139 -12,-8.91641 z M -6.0403763,610.61515 C 48.363724,567.97569 44.004324,572.3671 38.071424,566.17879 c -3.9475,-4.11734 -79.2851,-65.97227 -80.3715,-65.98791 -0.3488,-0.005 -13.2322,10.00337 -28.6296,22.24087 -15.3974,12.2375 -34.558104,27.425 -42.579304,33.75 -8.0211,6.325 -14.57735,11.725 -14.56931,12 0.008,0.275 14.87901,12.875 33.046714,28 18.1677,15.125 37.1501,30.99518 42.1833,35.26707 5.0331,4.27189 9.6646,7.57003 10.2922,7.32923 0.6276,-0.2408 17.0596,-12.91414 36.5156997,-28.1629 z M -276.66578,601.84456 c -40.35681,-33.72513 -41.00462,-34.32459 -41.2944,-38.21272 -0.16192,-2.17255 0.28808,-4.67831 1,-5.56836 0.71192,-0.89004 14.7944,-11.89248 31.2944,-24.44986 16.5,-12.55738 35.27317,-26.8453 41.71815,-31.75094 6.44499,-4.90564 12.29499,-8.69233 13,-8.41486 0.70502,0.27747 5.10685,3.84223 9.78185,7.9217 4.675,4.07947 15.925,13.64697 25,21.26112 44.47661,37.31695 51,43.0114 51,44.51929 0,0.93186 -10.54218,9.92662 -24.70497,21.07866 -13.58773,10.69924 -32.78554,25.86566 -42.6618,33.70316 -12.86181,10.20674 -18.69121,14.23942 -20.54504,14.21271 -1.90883,-0.0275 -13.35011,-9.03074 -43.58819,-34.2999 z m 47.17327,29.97603 c 1.5547,-1.29864 20.37673,-16.20986 41.82673,-33.13604 21.45,-16.92618 39,-31.13103 39,-31.56634 0,-0.43531 -9.50428,-8.81159 -21.12063,-18.61396 -11.61634,-9.80238 -29.33982,-24.7975 -39.38551,-33.3225 -10.04569,-8.525 -19.27472,-16.28556 -20.50896,-17.24569 -2.21328,-1.72174 -2.4275,-1.60555 -15.61448,8.46839 -7.35373,5.61774 -25.97042,19.80978 -41.37042,31.53786 -17.29896,13.17427 -28.36331,22.27137 -28.95063,23.8032 -0.75338,1.96493 -0.54587,2.88225 1,4.42075 3.37098,3.35491 80.91638,67.93422 81.6239,67.97586 0.37031,0.0218 1.94531,-1.02289 3.5,-2.32153 z M -628.81418,591.0893 c -7.48983,-2.16977 -12.0173,-12.40457 -9.38048,-21.2055 1.45893,-4.86946 11.50337,-21.80849 17.82633,-30.06246 5.24797,-6.8507 15.77785,-14.964 22.23739,-17.13398 7.46439,-2.50755 20.89556,-4.50279 30.32082,-4.50424 9.15154,-10e-4 16.35064,1.42469 27.77134,5.50136 8.26826,2.95139 18.57351,5.09182 30.873,6.41242 5.225,0.561 17.375,2.18043 27,3.59873 25.6675,3.78225 35.12729,4.3533 59,3.56159 18.14499,-0.60175 22.18802,-1.0184 25.90905,-2.67004 l 4.40906,-1.95702 -6.89977,-5.97421 c -9.41833,-8.15491 -13.45778,-12.71242 -23.73587,-26.78001 -12.50186,-17.11124 -13.25309,-18.63946 -17.69439,-35.99539 -4.22428,-16.50784 -4.96284,-25.28595 -2.9988,-35.64228 0.5441,-2.86905 1.46997,-9.34297 2.05748,-14.38649 0.58751,-5.04351 1.96076,-12.50469 3.05165,-16.58038 3.53322,-13.20042 18.68217,-39.85281 31.88079,-56.08965 9.76492,-12.01271 10.30767,-18.14982 2.247,-25.40786 -11.90145,-10.7164 -16.10868,-15.57032 -20.4869,-23.63592 -7.674,-14.1371 -17.36417,-41.92323 -19.80238,-56.78238 -0.6023,-3.67061 -1.73894,-9.93885 -2.52587,-13.92941 -2.59856,-13.17756 -2.72613,-26.24702 -0.49807,-51.02761 1.15138,-12.80575 2.5118,-25.18075 3.02314,-27.5 0.51135,-2.31925 1.43583,-8.04182 2.05439,-12.71682 1.3609,-10.28538 9.05185,-39.887092 12.56706,-48.369332 1.39737,-3.37187 3.45087,-8.98922 4.56334,-12.48301 1.11247,-3.49379 3.5662,-10.39707 5.45273,-15.34062 1.88653,-4.94356 4.35509,-12.61128 5.48568,-17.03938 2.32987,-9.12521 8.74127,-26.4624 12.84365,-34.7308 2.96569,-5.97739 11.70504,-18.77084 15.9685,-23.37614 3.93505,-4.25055 7.39764,-5.66072 13.89956,-5.66072 4.42232,0 7.20837,0.67833 11.29479,2.75 7.90355,4.00681 10.2588,8.44746 13.88542,26.17987 2.91458,14.25086 3.04869,14.59183 15.13218,38.47421 15.32228,30.28365 20.98877,38.64235 37.41658,55.19363 18.69515,18.835652 29.2675,27.767952 47.5,40.131472 15.5752,10.5616 31.15023,30.05152 39.77348,49.77082 5.35382,12.24289 10.96926,26.83642 13.09461,34.03051 3.44072,11.64655 5.39206,31.49722 4.89189,49.7645 -0.40512,14.79564 -0.7214,17.0735 -3.63673,26.19132 -1.75617,5.49248 -4.25384,12.30345 -5.55038,15.13547 -8.95571,19.56184 -32.31223,42.91541 -53.13415,53.12744 l -5.24922,2.57446 3.33977,4.85517 c 5.86743,8.52975 7.88744,15.10585 7.93159,25.82113 0.0351,8.50936 -0.2657,10.12567 -2.88424,15.5 -3.68932,7.57204 -15.11424,19.22438 -22.53072,22.97922 -2.99975,1.51873 -9.02791,5.20886 -13.3959,8.20031 -4.36799,2.99144 -10.68865,6.81243 -14.0459,8.49109 -15.2909,7.64558 -30.75846,18.96482 -32.41719,23.72306 -1.09263,3.13431 -0.34975,5.02292 3.77861,9.60632 4.1342,4.58987 14.03172,19.25368 15.76094,23.35083 2.43291,5.76443 2.12895,15.75068 -0.65442,21.50036 -4.73349,9.77808 -15.0462,17.96272 -28.51636,22.6319 -2.78063,0.96385 -11.58068,4.45446 -19.55568,7.75693 -7.975,3.30246 -16.975,6.3247 -20,6.71609 -3.025,0.39139 -7.975,1.32772 -11,2.08073 -3.025,0.75301 -11.575,2.11746 -19,3.03212 -14.7439,1.81623 -27.31301,1.54115 -46.5,-1.01769 -37.21305,-4.96285 -56.59545,-7.80834 -68.5,-10.05635 -7.425,-1.4021 -17.94522,-3.22116 -23.37826,-4.04235 -5.43305,-0.82119 -10.15805,-1.66577 -10.5,-1.87683 -0.34196,-0.21107 -4.82357,-1.10871 -9.95915,-1.99476 -11.50469,-1.98492 -15.51602,-1.13993 -21.71529,4.57436 -2.40429,2.2162 -7.12215,8.73554 -10.48414,14.48742 -3.36199,5.75189 -7.46608,11.99938 -9.1202,13.88332 -4.30487,4.90298 -11.11832,6.5174 -18.49136,4.38147 z m 9.81613,-1.93742 c 4.71585,-1.30982 8.23595,-5.39418 15.79543,-18.32737 8.67778,-14.84644 15.74494,-20.66651 25.03684,-20.61876 2.77487,0.0143 17.34722,2.48876 22.92124,3.8922 1.96832,0.49559 5.82876,1.1918 8.57876,1.54714 2.75,0.35534 13.325,2.16457 23.5,4.02051 16.40046,2.99148 28.21549,4.72737 68,9.99067 19.74799,2.61257 28.68256,2.83794 43,1.08463 7.425,-0.90926 15.975,-2.2693 19,-3.02231 3.025,-0.75301 7.975,-1.68934 11,-2.08073 3.025,-0.39139 12.025,-3.41363 20,-6.71609 7.975,-3.30247 16.77505,-6.79308 19.55568,-7.75693 13.35651,-4.62978 23.78238,-12.8528 28.4062,-22.40435 2.59757,-5.36585 2.87789,-12.63311 0.68936,-17.87101 -1.70676,-4.08486 -11.55719,-18.53258 -16.31714,-23.93252 -6.64541,-7.53889 -5.48333,-12.99707 4.4642,-20.96795 7.28195,-5.83499 15.25705,-10.86219 24.8058,-15.63664 3.35725,-1.67866 9.67791,-5.49965 14.0459,-8.49109 4.36799,-2.99145 10.39615,-6.68158 13.3959,-8.20031 7.23661,-3.66377 18.84976,-15.41805 22.34092,-22.6124 1.50346,-3.09825 2.98631,-8.08199 3.29521,-11.07498 0.87814,-8.50829 -3.19814,-20.52549 -9.8151,-28.93574 -1.57681,-2.00415 -2.86693,-4.13517 -2.86693,-4.73561 0,-0.60043 2.70659,-2.45798 6.01463,-4.12788 17.24748,-8.70649 35.30426,-24.66389 46.22982,-40.85486 6.09964,-9.03928 8.75864,-14.7539 12.86615,-27.65142 2.78182,-8.7349 3.23841,-11.7597 3.64354,-24.13779 0.52814,-16.13666 -1.55798,-36.55281 -4.88605,-47.81803 -2.12535,-7.19409 -7.74079,-21.78762 -13.09461,-34.03051 -8.62325,-19.7193 -24.19828,-39.20922 -39.77348,-49.77082 -18.2325,-12.36352 -28.80485,-21.29582 -47.5,-40.131472 -16.42781,-16.55128 -22.0943,-24.90998 -37.41658,-55.19363 -12.08349,-23.88238 -12.2176,-24.22335 -15.13218,-38.47421 -3.62662,-17.73241 -5.98187,-22.17306 -13.88542,-26.17987 -8.65313,-4.38682 -15.28117,-3.47656 -21.19435,2.91072 -4.26346,4.6053 -13.00281,17.39875 -15.9685,23.37614 -4.10238,8.2684 -10.51378,25.60559 -12.84365,34.7308 -1.13059,4.4281 -3.59915,12.09582 -5.48568,17.03938 -1.88653,4.94355 -4.34026,11.84683 -5.45273,15.34062 -1.11247,3.49379 -3.16597,9.11114 -4.56334,12.48301 -3.51521,8.48224 -11.20616,38.083952 -12.56706,48.369332 -0.61856,4.675 -1.54304,10.39757 -2.05439,12.71682 -0.51134,2.31925 -1.86735,14.69425 -3.01335,27.5 -2.16653,24.2094 -2.05274,33.88455 0.55609,47.28318 0.74963,3.85 1.85576,10.00323 2.45806,13.67384 2.43821,14.85915 12.12838,42.64528 19.80238,56.78238 4.38113,8.07096 8.56863,12.90077 20.52154,23.66934 3.76631,3.39312 4.70223,4.94536 5.27177,8.74332 1.06578,7.10715 -0.16578,11.0588 -5.5738,17.88443 -8.51279,10.74426 -20.59556,29.37102 -26.35051,40.62188 -6.19976,12.12044 -8.99169,21.31842 -10.56154,34.79484 -0.58751,5.04352 -1.51338,11.51744 -2.05748,14.38649 -1.72744,9.10877 -1.11573,15.56333 2.9988,31.64228 4.43881,17.3462 5.17572,18.84626 17.713,36.0564 9.74833,13.38172 14.65276,18.8705 24.62531,27.55938 3.67049,3.19801 6.67361,6.48582 6.67361,7.30623 0,0.82041 -2.1375,2.44696 -4.75,3.61456 -4.18393,1.86992 -7.49097,2.21513 -27.75,2.89675 -25.25045,0.84956 -35.12561,0.2686 -61.5,-3.61807 -9.625,-1.41839 -21.775,-3.0379 -27,-3.5989 -12.29949,-1.3206 -22.60474,-3.46103 -30.873,-6.41242 -10.82762,-3.86497 -18.50017,-5.50281 -25.77134,-5.50136 -7.66944,0.002 -21.43385,2.19066 -28.32082,4.50424 -6.45954,2.16998 -16.98942,10.28328 -22.23739,17.13398 -5.86802,7.66009 -16.17826,24.86381 -17.7066,29.54532 -2.69813,8.26473 3.46624,17.2056 12.90915,18.72356 0.275,0.0442 2.15048,-0.37804 4.16773,-0.93834 z m 968.62368,1.08522 c -5.3814,-1.70912 -8.5161,-5.11201 -15.305,-16.61484 -8.0817,-13.69316 -13.7929,-19.90531 -19.7917,-21.52762 -4.3362,-1.17267 -9.166,-0.67523 -25.1947,2.59494 -6.5017,1.32646 -26.1237,4.77832 -45,7.9163 -21.6518,3.59937 -64.24662,9.21005 -77.00002,10.14262 -8.90999,0.65152 -33.54369,-1.48532 -41.57879,-3.60675 -1.9683,-0.51968 -7.1798,-1.57354 -11.5812,-2.34192 -4.4619,-0.77894 -13.7183,-3.70289 -20.921296,-6.6087 -7.1053,-2.8664 -17.2067,-6.87091 -22.4475,-8.89891 -10.8527,-4.1995 -12.4331,-5.18022 -19.6474,-12.19205 -8.5898,-8.34877 -11.5185,-16.8464 -9.3712,-27.1901 1.1905,-5.73471 4.9026,-11.74907 15.7847,-25.57444 6.5976,-8.38197 6.8079,-10.99363 1.3068,-16.22676 -6.0622,-5.76678 -15.5208,-12.17457 -26.5441,-17.98236 -5.5,-2.89776 -12.7,-7.14768 -16,-9.44425 -3.3,-2.29658 -8.9225003,-5.7112 -12.4945003,-7.58805 -8.6766,-4.55907 -18.8670997,-14.68227 -22.9601997,-22.8086 -5.7587,-11.43319 -5.2129,-23.83298 1.6532,-37.56115 1.3872,-2.77349 3.3599,-5.95828 4.3838,-7.07731 1.842,-2.01321 1.7962,-2.07001 -4.3603,-5.40488 -18.2065,-9.86204 -33.6594,-23.78821 -44.6398,-40.22942 -6.4781,-9.69993 -8.5346,-13.83399 -12.1877,-24.5 l -4.3945,-12.8311 0.038,-21 c 0.06,-33.13122 1.7069,-40.88823 15.8987,-74.89935 5.3361,-12.78792 7.8459,-17.29718 15.6411,-28.10065 8.1107,-11.24082 17.0937,-20.22932 26.4219,-26.43813 15.9989997,-10.64882 31.2312,-23.44996 46.3481,-38.950882 18.4667,-18.93581 22.239,-24.44482 38.0804,-55.61099 12.1069,-23.81907 12.2202,-24.10612 15.0265,-38.07676 1.5552,-7.74222 3.7327,-15.84222 4.839,-18 4.1273,-8.05042 10.3316,-11.42324 21.012896,-11.42324 8.8595,0 11.4478,1.9312 21.1451,15.7768 10.0761,14.38646 10.4486,15.28724 26.5585,64.2232 3.1685,9.625 7.2914,21.46995 9.1618,26.32211 14.78899,38.364102 23.99609,111.301152 18.01079,142.677892 -3.8015,19.92846 -5.0034,24.85097 -8.9122,36.5 -10.91969,32.54257 -17.63939,43.82306 -33.52639,56.28115 -2.8604,2.2431 -4.5108,4.49392 -5.2164,7.11459 -1.8307,6.79862 -1.0072,8.60501 10.6381,23.33459 9.9894,12.63508 25.54399,40.40902 28.24179,50.42811 2.1494,7.98203 6.092,37.58342 6.092,45.73867 0,4.55676 -0.675,10.49405 -1.5,13.19396 -0.825,2.69991 -2.3898,8.61409 -3.4774,13.14263 -2.4898,10.36727 -5.9192,17.14954 -15.05109,29.7663 -9.6568,13.34182 -15.8174,20.3555 -24.6334,28.04438 l -7.3412,6.40263 2.8994,1.49938 c 5.5335,2.86144 11.9001,3.48801 36.68699,3.6105 18.307,0.0905 27.8347,-0.30604 35.9167,-1.49469 6.05,-0.88979 16.40002,-2.2534 23.00002,-3.03023 23.6689,-2.78587 39.9426,-5.71779 46,-8.28749 10.8452,-4.60077 19.0096,-6.2455 30.9324,-6.23134 13.4534,0.016 27.3508,2.67357 34.7715,6.64938 6.5182,3.49226 18.1607,15.01467 22.5994,22.36634 10.9776,18.1816 12.3393,20.95887 12.8359,26.17827 0.6122,6.43509 -2.4497,13.27905 -7.1443,15.96901 -3.7354,2.14038 -10.1231,3.01634 -13.7035,1.87921 z m 12.9248,-4.60507 c 1.359,-0.89043 3.3494,-3.60495 4.4231,-6.03227 3.0622,-6.92263 2.5376,-8.37484 -11.3402,-31.38915 -4.4303,-7.34701 -16.0732,-18.87208 -22.5952,-22.36634 -6.8979,-3.69571 -21.3737,-6.63287 -32.7715,-6.64938 -9.794,-0.0142 -18.7643,1.91779 -28.9324,6.23134 -6.0418,2.56308 -22.1467,5.46859 -46,8.29895 -6.6,0.78313 -15.37502,1.89283 -19.50002,2.46599 -16.8783,2.3452 -27.6368,2.79403 -49.99999,2.0859 -21.3942,-0.67745 -23.9705,-0.95012 -28.75,-3.04287 -3.2783,-1.43543 -5.2398,-2.90971 -5.2228,-3.92559 0.015,-0.89477 3.4034,-4.47948 7.5299,-7.96601 8.8925,-7.51339 16.5521,-16.22224 26.1681,-29.75266 8.92109,-12.55268 11.82339,-18.37252 14.29529,-28.66527 1.0887,-4.53361 2.6545,-10.45194 3.4795,-13.15185 0.825,-2.69991 1.5,-7.7372 1.5,-11.19396 0,-6.57221 -4.1902,-36.66057 -6.0963,-43.77598 -2.6546,-9.909 -18.10989,-37.46695 -28.06209,-50.03668 -8.9575,-11.31349 -10.859,-14.43259 -11.4566,-18.79232 -0.9404,-6.86108 1.019,-12.21519 5.8595,-16.01098 15.887,-12.45809 22.6067,-23.73858 33.52639,-56.28115 3.9186,-11.67843 5.1669,-16.79742 8.9001,-36.5 5.7302,-30.24215 -3.4427,-100.91817 -17.99869,-138.677892 -1.8704,-4.85216 -5.9933,-16.69711 -9.1618,-26.32211 -16.1099,-48.93596 -16.4824,-49.83674 -26.5585,-64.2232 -9.0139,-12.86994 -12.5414,-15.7768 -19.1451,-15.7768 -5.505896,0 -11.150996,2.04272 -14.640596,5.29773 -4.0804,3.80613 -6.2947,9.60575 -9.2113,24.12551 -2.8063,13.97064 -2.9196,14.25769 -15.0265,38.07676 -15.8414,31.16617 -19.6137,36.67518 -38.0804,55.61099 -15.1169,15.500922 -30.3491003,28.302062 -46.3481,38.950882 -9.3282,6.20881 -18.3112,15.19731 -26.4219,26.43813 -7.7952,10.80347 -10.305,15.31273 -15.6411,28.10065 -13.9671,33.47264 -15.8165,41.95674 -15.8912,72.89935 l -0.046,19 4.3945,12.8311 c 9.2498,27.00732 29.0682,49.48519 57.3555,65.05215 3.7125,2.04305 6.7499997,4.29786 6.7499997,5.0107 0,0.71284 -0.9492,2.15332 -2.1092997,3.20106 -5.6737,5.12398 -11.4746,21.77945 -10.4934,30.12816 1.4154,12.04271 13.0735997,27.04586 26.5767997,34.20197 3.5547,1.88383 9.9079003,5.70883 14.1182003,8.5 4.2104,2.79117 12.1329,7.45422 17.6055,10.36233 13.8691,7.36982 25.8567,16.98724 27.3276,21.9242 1.427,4.78984 0.599,6.97221 -5.6764,14.96205 -14.4827,18.43926 -17.3596,24.7585 -15.2778,33.55781 1.2784,5.40338 5.13,11.14624 11.0946,16.5424 6.1759,5.58727 7.4631,6.33452 17.8054,10.33654 5.2408,2.028 15.3422,6.03251 22.4475,8.89891 7.202996,2.90581 16.459396,5.82976 20.921296,6.6087 4.4014,0.76838 9.6129,1.82224 11.5812,2.34192 7.188,1.89777 32.5023,4.22782 39.03179,3.59267 24.1962,-2.35364 68.48252,-8.66428 94.83692,-13.51393 6.2094,-1.14264 13.8594,-2.47963 17,-2.97109 3.1405,-0.49147 10.6601,-1.82676 16.7101,-2.96731 6.05,-1.14056 12.575,-2.07722 14.5,-2.08146 10.2995,-0.0227 16.1755,4.95148 26.4864,22.42163 3.7992,6.43711 8.1875,12.61525 9.7519,13.72921 5.542,3.94618 10.7482,4.03483 16.4779,0.28056 z m -503.21621,-25.63696 c -2.4887,-1.40096 -21.11868,-16.6306 -55.37291,-45.26625 -14.5051,-12.12589 -26.9926,-22.54668 -27.75,-23.15731 -0.7574,-0.61064 -1.37708,-1.73564 -1.37706,-2.5 3e-5,-1.6483 0.0993,-1.72887 32.87355,-26.68775 14.09453,-10.73354 29.45142,-22.51422 34.12642,-26.17929 17.63918,-13.82863 17.94268,-14.02272 21.92747,-14.02272 4.36912,0 6.29022,1.36999 35.27283,25.15398 34.954404,28.68465 51.799704,43.11862 51.799704,44.38479 0,1.13569 -5.9659,6.0359 -44.5,36.551 -29.654304,23.48317 -42.121184,32.90756 -43.494574,32.87982 -0.82799,-0.0167 -2.40543,-0.53704 -3.50543,-1.15627 z m 21.1726,-14.99263 c 9.2551,-7.24862 21.122204,-16.58612 26.371404,-20.75 5.2493,-4.16388 16.6216,-13.16979 25.2719,-20.01313 12.3586,-9.77704 15.4553,-12.69232 14.4559,-13.60887 -7.1213,-6.53107 -72.352404,-60.11981 -77.992574,-64.07256 -2.53186,-1.7744 -4.44906,-2.41583 -6,-2.0074 -1.25358,0.33012 -7.00423,4.34641 -12.77923,8.92507 -5.775,4.57867 -21.975,17.04639 -36,27.70604 -14.025,10.65965 -27.85501,21.28075 -30.73336,23.60244 l -5.23335,4.22126 6.73335,5.90572 c 6.99591,6.136 37.28798,31.32513 62.02156,51.57355 7.8585,6.43345 14.91116,11.69719 15.67257,11.69719 0.7614,0 8.95671,-5.93069 18.21183,-13.17931 z m -348.25555,-16.81596 c -17.58463,-1.47174 -40.17369,-6.01574 -65.41705,-13.15925 -20.10421,-5.6892 -25.02544,-7.96647 -43.05946,-19.92548 -13.62097,-9.03255 -31.14352,-25.1769 -38.44371,-35.42 -8.98897,-12.61268 -14.49683,-26.77802 -14.49683,-37.28356 0,-6.12755 2.11655,-9.05586 7.12478,-9.85738 3.13303,-0.5014 4.15052,-0.11286 7.5,2.86395 2.13137,1.89423 8.37522,6.97724 13.87522,11.29557 5.5,4.31832 11.00965,8.82902 12.24366,10.02376 4.51379,4.37013 16.88148,10.22688 41.22884,19.52398 5.75988,2.19943 12.84445,5.12107 15.7435,6.49254 5.61874,2.65809 38.09581,12.79581 44.784,13.97933 2.2,0.38931 7.39455,1.99934 11.54344,3.57785 6.93687,2.63924 8.23736,3.62167 16.17301,12.21757 4.74626,5.14116 11.90971,11.57088 15.91878,14.28826 9.20202,6.23722 11.60593,9.96099 9.96535,15.43677 -0.6441,2.1498 -2.0167,4.36129 -3.05023,4.91441 -2.71437,1.45269 -19.90442,2.01332 -31.6333,1.03168 z m 29.8031,-3.12255 c 2.52309,-1.35032 3.3635,-5.75163 1.67326,-8.76301 -0.77776,-1.38568 -4.7066,-4.75109 -8.73075,-7.47871 -4.02416,-2.72761 -11.19995,-9.16569 -15.94621,-14.30685 -7.93565,-8.5959 -9.23614,-9.57833 -16.17301,-12.21757 -4.14889,-1.57851 -9.34344,-3.18854 -11.54344,-3.57785 -6.68819,-1.18352 -39.16526,-11.32124 -44.784,-13.97933 -2.89905,-1.37147 -9.98362,-4.29311 -15.7435,-6.49254 -24.34736,-9.2971 -36.71505,-15.15385 -41.22884,-19.52398 -1.23401,-1.19474 -6.74366,-5.70544 -12.24366,-10.02376 -5.5,-4.31833 -11.65234,-9.31867 -13.67187,-11.11186 -4.06904,-3.613 -6.85738,-3.63075 -9.35872,-0.0596 -4.11612,5.87658 1.97167,24.64022 13.02742,40.15286 13.00595,18.249 45.11744,42.89159 65.73197,50.44317 20.64226,7.56174 59.94548,16.29874 81.18825,18.04793 11.1012,0.9141 25.0636,0.35721 27.8031,-1.10892 z m 612.93954,2.18948 c -5.3794,-0.49239 -6.7181,-1.01954 -8.8328,-3.478 -2.0532,-2.38705 -2.3755,-3.53167 -1.8287,-6.49566 0.7959,-4.31436 3.3166,-7.22658 10.0018,-11.55513 6.7952,-4.39979 14.4727,-11.47102 19.1326,-17.62177 4.8075,-6.34549 8.0297,-8.01886 22.97882,-11.93354 6.5387,-1.71229 15.4886,-4.23589 19.8886,-5.608 4.4,-1.37211 10.925,-3.41077 14.5,-4.53036 3.575,-1.11959 9.425,-3.318 13,-4.88535 3.575,-1.56735 14.15,-5.84767 23.5,-9.51182 19.3477,-7.58213 28.2188,-12.08879 34.0818,-17.31416 2.245,-2.00083 7.42,-6.20942 11.5,-9.35242 4.08,-3.143 8.5432,-6.75928 9.9182,-8.03619 6.8683,-6.37826 12.0117,-7.4946 15.8257,-3.43481 6.0127,6.40022 -0.5383,29.47494 -13.1123,46.18555 -8.2555,10.97143 -23.5087,24.72914 -38.3161,34.55938 -16.3264,10.83867 -20.5623,12.86417 -37.8973,18.12178 -36.2531,10.99533 -73.19452,16.82609 -94.34032,14.8905 z m 43.24492,-5.03037 c 23.5701,-4.24695 55.7685,-12.95416 67.5954,-18.2794 10.6528,-4.79658 32.8631,-20.5095 43.2466,-30.59522 11.7599,-11.42265 17.5972,-18.91387 22.7991,-29.25851 6.9789,-13.87852 8.7152,-24.90528 4.5394,-28.82824 -2.924,-2.74695 -4.6961,-2.3228 -10.0851,2.41394 -2.2,1.9337 -7.3382,6.10115 -11.4182,9.26098 -4.08,3.15984 -9.255,7.3822 -11.5,9.38303 -5.863,5.22537 -14.7341,9.73203 -34.0818,17.31416 -9.35,3.66415 -19.925,7.94447 -23.5,9.51182 -3.575,1.56735 -9.425,3.76576 -13,4.88535 -3.575,1.11959 -10.1,3.15825 -14.5,4.53036 -4.4,1.37211 -13.3499,3.89571 -19.8886,5.608 -14.94912,3.91468 -18.17132,5.58805 -22.97882,11.93354 -4.4353,5.85433 -12.3103,13.19861 -18.1326,16.9106 -10.6124,6.76597 -13.0978,11.96266 -7.75,16.20433 2.6468,2.09935 3.3879,2.16186 19.75,1.66573 10.8714,-0.32963 21.2917,-1.28875 28.90462,-2.66047 z m -704.40461,-55.4299 c -11.79575,-2.53632 -20.52635,-5.56867 -33.02029,-11.46873 -4.68616,-2.21297 -12.15487,-5.36368 -16.59714,-7.0016 -8.68879,-3.20366 -39.98416,-18.57328 -57.88257,-28.427 -29.70323,-16.35269 -55.13706,-35.1283 -64.63447,-47.71406 -16.19513,-21.46144 -26.29769,-71.16656 -15.32073,-75.37882 4.01039,-1.53893 7.1719,-0.36838 14.4552,5.35203 4.125,3.23984 10.875,8.47514 15,11.63401 4.125,3.15887 10.2,8.07859 13.5,10.93271 12.13754,10.49758 21.69983,16.2855 51.02307,30.88356 16.48731,8.20793 37.40193,18.85778 46.47693,23.66634 9.075,4.80856 21,10.4128 26.5,12.45386 20.12021,7.46666 41.063,16.62787 43.49097,19.02469 2.03258,2.0065 2.60498,3.79062 3.11055,9.69531 0.82187,9.59878 -0.13039,44.76469 -1.27235,46.98631 -1.27881,2.48785 -11.51307,2.22463 -24.82917,-0.63861 z m 22.84605,-1.36139 c 0.85722,-1.63695 1.70124,-29.05577 1.32317,-42.98422 -0.24648,-9.08063 -2.15968,-10.76266 -21.16922,-18.61138 -8.525,-3.51982 -20,-8.06964 -25.5,-10.11071 -5.5,-2.04106 -17.425,-7.6453 -26.5,-12.45386 -9.075,-4.80856 -29.98962,-15.45841 -46.47693,-23.66634 -29.10847,-14.49115 -38.82668,-20.35096 -50.43772,-30.41258 -5.27528,-4.57133 -13.14436,-10.78098 -29.86187,-23.56461 -8.04288,-6.15027 -10.16798,-6.38809 -12.73445,-1.42509 -2.89385,5.59608 -1.4794,18.13207 4.39801,38.97879 2.70144,9.58181 8.67137,21.96712 13.97849,29 9.49741,12.58576 34.93124,31.36137 64.63447,47.71406 17.89841,9.85372 49.19378,25.22334 57.88257,28.427 4.44227,1.63792 11.91098,4.78863 16.59714,7.0016 12.49394,5.90006 21.22454,8.93241 33.02029,11.46873 13.23516,2.84583 19.58828,3.04045 20.84605,0.63861 z m 656.71064,0.52749 c -1.3073,-1.8664 -1.5543,-6.15247 -1.542,-26.75 0.016,-26.10427 0.2712,-27.70188 4.9853,-31.17833 2.9804,-2.1979 19.02462,-8.98321 38.95722,-16.47557 7.9515,-2.98883 16.5015,-6.60928 19,-8.04545 9.3437,-5.37078 14.0164,-7.80499 32.5428,-16.9528 10.45,-5.15992 20.8,-10.33359 23,-11.49705 2.2,-1.16346 9.4,-4.82157 16,-8.12913 14.9903,-7.51232 22.3961,-12.27904 34.6901,-22.32835 13.3984,-10.95195 30.6803,-24.60759 34.4643,-27.23259 4.082,-2.83178 9.4191,-2.8693 11.9406,-0.0839 6.012,6.64094 -0.21,42.78607 -10.913,63.39572 -11.7486,22.62318 -47.3359,47.73628 -110.182,77.75285 -8.8,4.20306 -19.825,9.18672 -24.5,11.07481 -4.675,1.88809 -12.7241,5.31019 -17.8869,7.60468 -10.3609,4.60469 -22.7544,8.24519 -33.88172,9.95244 -11.262,1.72795 -14.856,1.48929 -16.6747,-1.10729 z m 19.84982,-1.77706 c 9.0839,-1.36344 21.9894,-5.75065 36.403,-12.37515 6.4298,-2.95513 13.4905,-5.93957 15.6905,-6.63207 5.683,-1.78887 53.2629,-25.56014 65.0909,-32.51991 36.7975,-21.65219 55.4775,-37.38766 64.0731,-53.9733 6.6298,-12.79276 13.2862,-37.31672 13.2996,-49 0.011,-9.4781 -3.4362,-14.19056 -8.4267,-11.51976 -2.581,1.38132 -17.5359,13.0776 -35.4229,27.70446 -12.8835,10.53531 -20.4187,15.43017 -35.0727,22.78309 -6.8977,3.46105 -14.3413,7.24527 -16.5413,8.40936 -2.2,1.16409 -12.55,6.33827 -23,11.49819 -18.5264,9.14781 -23.1991,11.58202 -32.5428,16.9528 -2.4985,1.43617 -11.0485,5.05662 -19,8.04545 -19.9326,7.49236 -35.97682,14.27767 -38.95722,16.47557 -4.6689,3.44311 -4.9696,5.20287 -4.9853,29.17833 -0.013,19.29036 0.2213,22.86446 1.6278,24.87242 1.7873,2.55175 1.4456,2.54982 17.76402,0.10052 z m -681.90651,-66.94176 c -22.5137,-6.74977 -63.13363,-26.87222 -91.57209,-45.3633 -11.23535,-7.30539 -26.50291,-16.81109 -33.92791,-21.12379 -54.09444,-31.41992 -73.94215,-44.77923 -100.5,-67.64563 -4.95,-4.26197 -12.66523,-10.60134 -17.14496,-14.08749 -7.81556,-6.08212 -11.60168,-9.38692 -39.20867,-34.22422 -14.77518,-13.29285 -21.25488,-20.84182 -27.35579,-31.86999 -3.77761,-6.82852 -4.66465,-9.44631 -5.16549,-15.24425 -0.33258,-3.85 -1.27458,-14.2 -2.09335,-23 -0.81876,-8.8 -1.4957,-20.275 -1.50431,-25.5 -0.0253,-15.39201 4.03471,-38.957792 8.18289,-47.496002 3.08831,-6.35668 6.38538,-6.27352 12.68254,0.31988 4.96166,5.19508 20.19978,22.19833 32.79985,36.599262 19.99647,22.85446 29.61884,33.1068 43.24559,46.07686 17.50162,16.6582 31.51406,29.40302 39.0617,35.52802 3.025,2.45482 8.60736,7.16104 12.40525,10.45827 6.85857,5.95444 34.39168,28.35664 66.59475,54.18455 0.825,0.66168 6,4.5308 11.5,8.59806 36.78548,27.20289 51.72643,37.87813 73.05697,52.19887 21.5984,14.50057 25.36239,16.65412 35.99484,20.59426 6.53077,2.42016 13.01579,5.38444 14.41116,6.58731 2.31444,1.99514 2.52571,2.8303 2.40797,9.51884 -0.15353,8.72177 -3.30272,18.97058 -10.02198,32.61587 -7.00989,14.23547 -10.80076,16.18657 -23.84896,12.27462 z m 14.04425,-2.52462 c 6.23556,-4.7561 17.4581,-31.47966 17.79213,-42.36735 0.21534,-7.0192 -1.4572,-8.4247 -16.78457,-14.10467 -10.63245,-3.94014 -14.39644,-6.09369 -35.99484,-20.59426 -21.33054,-14.32074 -36.27149,-24.99598 -73.05697,-52.19887 -5.5,-4.06726 -10.675,-7.93638 -11.5,-8.59806 -32.20307,-25.82791 -59.73618,-48.23011 -66.59475,-54.18455 -3.79789,-3.29723 -9.38025,-8.00345 -12.40525,-10.45827 -7.54764,-6.125 -21.56008,-18.86982 -39.0617,-35.52802 -13.62675,-12.97006 -23.24912,-23.2224 -43.24559,-46.07686 -24.6619,-28.186692 -36.91653,-41.423142 -38.35059,-41.423142 -4.14845,0 -11.35258,31.835302 -11.31469,50.000002 0.009,4.125 0.68555,14.7 1.50431,23.5 0.81877,8.8 1.76077,19.15 2.09335,23 0.50084,5.79794 1.38788,8.41573 5.16549,15.24425 6.10091,11.02817 12.58061,18.57714 27.35579,31.86999 27.60699,24.8373 31.39311,28.1421 39.20867,34.22422 4.47973,3.48615 12.19496,9.82552 17.14496,14.08749 26.55785,22.8664 46.40556,36.22571 100.5,67.64563 7.425,4.3127 22.69256,13.8184 33.92791,21.12379 28.43846,18.49108 69.05839,38.61353 91.57209,45.3633 7.90083,2.36873 8.27207,2.35256 12.04425,-0.52462 z m 638.35914,0.15766 c -6.2132,-6.03953 -16.312,-30.02961 -17.5518,-41.69468 -0.4017,-3.7797 -0.1182,-6.61979 0.9053,-9.06937 1.4076,-3.36889 2.2358,-3.84725 14.9543,-8.63776 12.4696,-4.6967 15.269,-6.28456 37.89182,-21.49283 13.4352,-9.0318 33.1957,-22.88729 43.9123,-30.78998 10.7166,-7.90268 23.7597,-17.51306 28.9847,-21.3564 5.225,-3.84333 18.725,-14.43544 30,-23.53802 11.275,-9.10258 24.1,-19.44678 28.5,-22.98711 4.4,-3.54034 12.05,-9.90002 17,-14.13263 4.95,-4.23261 12.4251,-10.57505 16.6114,-14.0943 27.3085,-22.95725 60.8811,-56.10473 75.3529,-74.39863 8.0078,-10.12276 37.8976,-42.943672 41.6654,-45.751382 5.4163,-4.0361 9.0838,0.61036 12.8271,16.25138 4.2811,17.887972 4.8765,37.958832 2.017,68.000002 -2.1596,22.68823 -2.273,23.19884 -6.9026,31.07851 -7.6412,13.00569 -14.6045,20.55839 -36.5713,39.66703 -5.5,4.78438 -12.9309,11.41138 -16.5131,14.72667 -3.5821,3.31528 -11.2321,9.73576 -16.9999,14.26772 -5.7678,4.53196 -13.6369,11.0022 -17.4869,14.37831 -19.3862,16.99998 -49.8963,37.4354 -91,60.95117 -17.6056,10.07232 -33.4838,19.98724 -44.5,27.78741 -13.849,9.80601 -41.3635,24.00375 -66.5,34.31461 -26.83732,11.00853 -31.18282,11.78275 -36.59662,6.52028 z m 12.2978,-0.11934 c 7.3398,-1.97751 37.11952,-14.29137 49.79882,-20.59169 13.7764,-6.84546 32.1131,-17.24746 39,-22.12386 11.0162,-7.80017 26.8944,-17.71509 44.5,-27.78741 41.1037,-23.51577 71.6138,-43.95119 91,-60.95117 3.85,-3.37611 11.7191,-9.84635 17.4869,-14.37831 5.7678,-4.53196 13.4178,-10.95244 16.9999,-14.26772 3.5822,-3.31529 11.0131,-9.94229 16.5131,-14.72667 13.4708,-11.71808 24.4102,-22.29494 28.6966,-27.74554 6.4045,-8.14399 12.8034,-20.16152 12.8034,-24.04543 0,-1.97299 0.4137,-6.0324 0.9194,-9.02091 2.3106,-13.65493 3.4356,-39.81204 2.2656,-52.67737 -1.7779,-19.548592 -7.0081,-38.256292 -10.6956,-38.256292 -1.4131,0 -21.5939,21.07396 -28.2497,29.5 -2.1723,2.750002 -4.9641,5.900002 -6.2042,7.000002 -1.24,1.1 -4.5565,4.925 -7.3701,8.5 -15.2716,19.40455 -48.2759,52.1264 -76.5539,75.89863 -4.1863,3.51925 -11.6614,9.86169 -16.6114,14.0943 -4.95,4.23261 -12.6,10.59229 -17,14.13263 -4.4,3.54033 -17.225,13.88453 -28.5,22.98711 -11.275,9.10258 -24.775,19.69469 -30,23.53802 -5.225,3.84334 -18.2681,13.45372 -28.9847,21.3564 -10.7166,7.90269 -30.4771,21.75818 -43.9123,30.78998 -22.62282,15.20827 -25.42222,16.79613 -37.89182,21.49283 -12.5752,4.73653 -13.5593,5.2989 -14.9042,8.51766 -1.7329,4.14754 -1.1694,8.28121 2.6704,19.58728 3.9546,11.64428 9.9864,23.46735 13.926,27.29687 3.9354,3.82546 3.4253,3.73229 10.2978,1.88066 z m -652.7294,-69.93284 c -14.52636,-7.00185 -78.73257,-52.00673 -116.47102,-81.63953 -41.91706,-32.9139 -95.91225,-79.48946 -110.86456,-95.63035 -3.50008,-3.77831 -10.48284,-11.14465 -15.51724,-16.36965 -17.44228,-18.10264 -31.36398,-33.549422 -39.65583,-44.000002 -4.58208,-5.775 -10.83578,-13.21982 -13.8971,-16.54404 -8.42182,-9.14507 -19.83429,-24.06511 -22.63459,-29.59125 -1.37176,-2.70703 -3.66523,-9.29651 -5.0966,-14.64329 l -2.60249,-9.72142 0.59055,-29.5 c 0.45201,-22.57941 1.08036,-32.66705 2.67842,-43 1.14833,-7.42501 2.67515,-17.67593 3.39294,-22.77984 1.43614,-10.21186 2.72499,-12.13195 8.18142,-12.18837 3.91564,-0.0405 4.45656,0.5702 19.55875,22.08138 6.80106,9.68726 16.41556,23.31613 21.36556,30.2864 4.95,6.97026 11.96398,16.91139 15.58662,22.09139 19.33052,27.64063 32.91342,43.68582 57.82691,68.3097 13.52256,13.36536 29.98647,29.11064 36.58647,34.9895 6.6,5.87886 12.48799,11.14357 13.08443,11.69934 0.59643,0.55578 7.46209,7.039772 15.25702,14.408882 7.79493,7.3691 21.48194,18.96627 30.41558,25.77149 8.93363,6.80521 20.42831,16.13602 25.54372,20.73513 5.11541,4.59911 16.35689,13.47694 24.98106,19.72851 8.62417,6.25157 19.28883,14.30867 23.69925,17.90467 4.41042,3.596 10.60028,8.48292 13.75524,10.85981 7.36994,5.55237 9.39986,8.96306 11.30183,18.98946 3.97473,20.95307 9.76587,39.86653 21.10077,68.9137 6.93617,17.77485 7.65994,22.27792 4.2728,26.58397 -5.12199,6.51157 -12.1442,7.21705 -22.43991,2.25441 z m 15.48957,-0.11955 c 3.48955,-1.80452 7.03864,-6.14275 7.03864,-8.60368 0,-0.9977 -2.8625,-9.14951 -6.3611,-18.11515 -11.3349,-29.04717 -17.12604,-47.96063 -21.10077,-68.9137 -1.90197,-10.0264 -3.93189,-13.43709 -11.30183,-18.98946 -3.15496,-2.37689 -9.34482,-7.26381 -13.75524,-10.85981 -4.41042,-3.596 -15.07508,-11.6531 -23.69925,-17.90467 -8.62417,-6.25157 -19.86565,-15.1294 -24.98106,-19.72851 -5.11541,-4.59911 -16.61009,-13.92992 -25.54372,-20.73513 -8.93364,-6.80522 -22.62065,-18.40239 -30.41558,-25.77149 -7.79493,-7.36911 -14.66059,-13.8531 -15.25702,-14.40888 -0.59644,-0.55577 -6.48443,-5.820482 -13.08443,-11.699342 -6.6,-5.87886 -23.06391,-21.62414 -36.58647,-34.9895 -24.91349,-24.62388 -38.49639,-40.66907 -57.82691,-68.3097 -3.62264,-5.18 -10.63662,-15.12113 -15.58662,-22.09139 -4.95,-6.97027 -14.55786,-20.59914 -21.35081,-30.2864 -6.79294,-9.68725 -13.41336,-18.71087 -14.71203,-20.05248 -2.15508,-2.22635 -2.58514,-2.31946 -4.92617,-1.06658 -2.94844,1.57795 -2.56758,0.0948 -6.03613,23.50588 -3.28304,22.15899 -4.39028,37.51241 -4.43518,61.50001 -0.0311,16.59498 0.22027,19.45145 2.44077,27.73969 1.36147,5.08182 3.59359,11.44631 4.96025,14.14329 2.79229,5.51032 14.21383,20.43912 22.62534,29.57298 3.06132,3.32422 9.31502,10.76904 13.8971,16.54404 8.29185,10.45058 22.21355,25.897362 39.65583,44.000002 5.0344,5.225 12.01716,12.59134 15.51724,16.36965 14.95231,16.14089 68.9475,62.71645 110.86456,95.63035 37.73845,29.6328 101.94466,74.63768 116.47102,81.63953 7.82532,3.77188 9.40588,3.99221 13.48957,1.88045 z m 611.55493,-0.0577 c -2.191,-1.49552 -4.5392,-3.44883 -5.2182,-4.34069 -2.27469,-2.98782 -1.3456,-8.80469 3.3178,-20.77414 11.8187,-30.33419 20.9953,-60.35254 23.8671,-78.07413 0.3767,-2.32469 1.6596,-5.66794 2.851,-7.42945 2.6217,-3.87657 16.555,-14.85414 54.56762,-42.99208 4.1967,-3.10654 12.5052,-9.99174 18.4632,-15.30044 5.958,-5.3087 16.966,-14.24199 24.4623,-19.85176 7.4963,-5.60976 19.4893,-15.78173 26.6512,-22.60437 7.162,-6.82265 18.6467,-17.335522 25.5217,-23.361932 6.875,-6.02641 24.4275,-22.71925 39.0055,-37.09519 26.4317,-26.06528 31.6441,-32.0781 52.764,-60.86614 14.6417,-19.95799 19.5594,-26.83027 36.6893,-51.27193 22.2312,-31.72027 22.877,-32.50001 26.9169,-32.50001 6.1346,0 6.5927,0.99554 9.6942,21.06771 3.0738,19.89323 4.4719,37.31344 5.4521,67.9323 0.715,22.33613 0.3043,25.07944 -5.6476,37.73049 -2.2692,4.82323 -4.9159,10.56951 -5.8816,12.76951 -0.9657,2.2 -7.0966,9.66269 -13.6243,16.58376 -6.5277,6.92107 -15.0186,16.53457 -18.8686,21.36334 -12.0967,15.172022 -55.6304,61.416772 -72.0882,76.577512 -52.0712,47.96736 -127.7803,107.46781 -184.1384,144.71619 -24.60322,16.2608 -29.48592,18.922 -36.43272,19.8566 -3.6453,0.49043 -4.9787,0.1484 -8.3243,-2.13515 z m 15.257,-2.53694 c 7.8322,-3.36039 50.33962,-32.24904 82.72672,-56.22225 47.6736,-35.28846 91.5088,-71.22335 128.9117,-105.67845 16.4578,-15.16074 59.9915,-61.405492 72.0882,-76.577512 3.85,-4.82877 12.3409,-14.44227 18.8686,-21.36334 6.5277,-6.92107 12.6586,-14.38376 13.6243,-16.58376 0.9657,-2.2 3.6117,-7.94482 5.8801,-12.76627 2.2683,-4.82144 4.5398,-10.61586 5.0477,-12.87648 1.0328,-4.59631 0.553,-31.30171 -0.9855,-54.85725 -1.4464,-22.14582 -6.1778,-51.97299 -8.5154,-53.6823 -4.04,-2.95411 -4.0233,-2.97269 -27.9609,31.1823 -17.1299,24.44166 -22.0476,31.31394 -36.6893,51.27193 -21.1199,28.78804 -26.3323,34.80086 -52.764,60.86614 -14.578,14.37594 -32.1305,31.06878 -39.0055,37.09519 -6.875,6.02641 -18.3597,16.539282 -25.5217,23.361932 -7.1619,6.82264 -19.1549,16.99461 -26.6512,22.60437 -7.4963,5.60977 -18.5043,14.54306 -24.4623,19.85176 -5.958,5.3087 -14.2665,12.1939 -18.4632,15.30044 -38.0126,28.13794 -51.94592,39.11551 -54.56762,42.99208 -1.1914,1.76151 -2.4743,5.10476 -2.851,7.42945 -2.8718,17.72159 -12.0484,47.73994 -23.8671,78.07413 -2.5387,6.51608 -4.6016,12.59108 -4.5841,13.5 0.044,2.31012 1.8702,4.4677 6.3569,7.51248 4.2042,2.85302 5.8463,2.7997 13.3846,-0.43459 z m -697.787,-159.00565 c -19.51746,-15.54592 -41.33629,-32.94333 -48.48629,-38.66092 -7.15,-5.7176 -22.675,-19.93124 -34.5,-31.585882 -11.825,-11.65463 -27.44387,-26.71725 -34.7086,-33.47249 -7.26472,-6.75523 -20.53972,-20.27452 -29.5,-30.04286 -19.635,-21.40577 -20.4384,-22.32591 -46.41311,-53.15754 -6.83515,-8.11323 -45.90522,-62.41749 -53.60023,-74.50001 -1.40112,-2.199998 -3.55732,-7.824998 -4.79156,-12.499998 -1.9514,-7.39144 -2.1631,-9.99981 -1.62318,-20 0.86028,-15.93373 3.00968,-27.07238 8.07573,-41.85024 5.71791,-16.67935 7.65816,-21.46691 14.22485,-35.09977 6.20538,-12.88278 9.72031,-18.36972 16.26311,-25.38731 7.7702,-8.33408 13.12032,-9.77201 17.40641,-4.67828 2.43465,2.89341 6.66658,12.69797 6.66658,15.44515 0,0.74498 1.31608,6.4656 2.92463,12.71248 1.60854,6.24689 3.24551,13.60797 3.6377,16.35797 0.92382,6.47769 4.73985,18.18941 8.06421,24.74971 4.81109,9.49423 20.77739,32.01307 28.84526,40.6833 8.17785,8.78843 52.91687,55.126808 85.02738,88.066998 9.91872,10.175 31.52103,32.45 48.00512,49.5 39.0526,40.39327 60.72421,62.56693 67.33219,68.89199 2.93507,2.80941 5.97257,6.32316 6.75,7.80835 1.62333,3.10117 1.85072,9.51952 0.46626,13.16091 -0.77268,2.032302 -4.65337,29.593522 -11.05887,78.541522 -0.98189,7.50324 -4.37792,11.79846 -10.05716,12.72007 -3.31283,0.5376 -5.01407,-0.67239 -38.95043,-27.70315 z m 43.49671,22.09805 c 2.03952,-2.1288 2.88383,-4.32842 3.51586,-9.15966 6.27372,-47.95609 10.19962,-75.78852 11.1269,-78.883492 0.62509,-2.08637 0.82079,-5.0514 0.43489,-6.58894 -0.44577,-1.7761 -7.94369,-10.10534 -20.56092,-22.8406 -10.92261,-11.02478 -21.08702,-21.39505 -22.58757,-23.04505 -2.90835,-3.19802 -49.9942,-51.80817 -79.91298,-82.5 -32.11051,-32.94019 -76.84953,-79.278568 -85.02738,-88.066998 -8.06787,-8.67023 -24.03417,-31.18907 -28.84526,-40.6833 -3.34643,-6.60385 -7.15261,-18.31565 -8.04333,-24.74971 -0.3807,-2.75 -1.59734,-8.375 -2.70364,-12.5 -1.1063,-4.125 -2.65664,-10.56625 -3.4452,-14.31389 -1.79083,-8.51092 -4.89322,-15.8291 -7.91314,-18.66617 -2.15519,-2.02469 -2.51868,-2.07262 -5.20067,-0.68571 -3.4131,1.76498 -10.64725,9.33297 -15.0225,15.71576 -9.74713,14.21947 -25.55507,54.17895 -28.7278,72.6184 -2.92299,16.98804 -3.07977,26.83495 -0.57848,36.33161 1.23134,4.675 3.38516,10.3 4.78628,12.5 7.69501,12.082518 46.76508,66.386778 53.60023,74.500008 25.97471,30.83163 26.77811,31.75177 46.41311,53.15754 8.96028,9.76834 22.23528,23.28763 29.5,30.04286 7.26473,6.75524 22.8836,21.81786 34.7086,33.47249 11.825,11.654642 27.35,25.868282 34.5,31.585882 70.7539,56.57928 83.61192,66.52472 85.40171,66.05668 1.04347,-0.27287 3.10505,-1.75684 4.58129,-3.29771 z m 668.17589,1.92861 c -3.21,-2.52498 -4.2428,-6.09992 -6.1962,-21.44635 -7.1196,-55.93505 -8.4931,-65.688222 -9.5211,-67.609212 -1.321,-2.46826 -1.1094,-9.96139 0.3557,-12.59724 0.6746,-1.21354 9.5525,-10.66354 19.7288,-21 10.17642,-10.33645 31.54462,-32.29355 47.48502,-48.79355 15.9405,-16.49999999 35.9946,-37.2 44.5647,-46 8.5702,-8.8 22.9642,-23.65 31.9866,-33.00001 9.0225,-9.35 24.0793,-24.875 33.4596,-34.5 32.8862,-33.744168 35.7878,-36.948588 42.7261,-47.184068 3.8461,-5.67376 8.5018,-12.38509 10.3461,-14.91405 5.5061,-7.55032 12.3154,-24.44925 13.862,-34.40188 1.036,-6.66642 6.6346,-29.60983 8.7847,-36 3.0383,-9.02984 5.1196,-11.5 9.6896,-11.5 12.2095,0 29.7031,28.30686 43.61,70.56656 4.4568,13.54298 6.4209,24.46943 7.0884,39.43344 0.513,11.50039 0.3471,13.21166 -2.0746,21.39916 -2.3035,7.78833 -3.9141,10.721678 -12.9029,23.499998 -38.9931,55.43233 -37.3225,53.24692 -67.7317,88.60085 -23.7218,27.57912 -34.937,39.21228 -68.4486,71 -9.2772,8.8 -21.391,20.69344 -26.9194,26.42986 -7.2373,7.509552 -24.0113,21.579312 -59.9084,50.250002 -45.7249,36.52009 -50.16822,39.82014 -53.61512,39.82014 -2.277,0 -4.7876,-0.80949 -6.3693,-2.05365 z m 57.98442,-39.76649 c 35.8971,-28.67069 52.6711,-42.74045 59.9084,-50.250002 5.5284,-5.73642 17.6422,-17.62986 26.9194,-26.42986 33.5116,-31.78772 44.7268,-43.42088 68.4486,-70.99999999 30.4093,-35.35393001 28.7387,-33.16852001 67.7317,-88.60085001 8.9943,-12.786118 10.5975,-15.706908 12.8991,-23.499998 2.3748,-8.04089 2.5698,-9.93354 2.0226,-19.62431 -0.3331,-5.89883 -1.3064,-14.41888 -2.1628,-18.93344 -4.3395,-22.87639 -21.1628,-62.92425 -32.2215,-76.70367 -5.6525,-7.04316 -11.6371,-12.13774 -14.2583,-12.13774 -2.4137,0 -5.2449,4.23426 -7.6896,11.5 -2.1501,6.39017 -7.7487,29.33358 -8.7847,36 -1.5466,9.95263 -8.3559,26.85156 -13.862,34.40188 -1.8443,2.52896 -6.5,9.24029 -10.3461,14.91405 -6.9383,10.23548 -9.8399,13.4399 -42.7261,47.184068 -9.3803,9.625 -24.4371,25.15 -33.4596,34.5 -9.0224,9.35001 -23.4164,24.20001 -31.9866,33.00001 -8.5701,8.8 -28.6242,29.5 -44.5647,46 -15.9404,16.5 -37.3086,38.4571 -47.48502,48.79355 -10.1763,10.33646 -19.0542,19.78646 -19.7288,21 -1.484,2.6699 -1.6307,6.21492 -0.3557,8.59724 1.028,1.92099 2.4015,11.674162 9.5211,67.609212 0.8401,6.6 1.9905,13.66336 2.5564,15.69635 1.0906,3.91751 5.079,7.80365 8.0091,7.80365 0.9671,0 24.19392,-17.91906 51.61512,-39.82014 z M -476.75143,48.931748 c -9.33001,-9.4875 -23.47756,-23.99617 -31.439,-32.24148 -17.30176,-17.91867 -41.05585,-42.3945 -65.02098,-66.99657 -50.77316,-52.122598 -65.02367,-67.023178 -71.26119,-74.511958 -8.41178,-10.09919 -16.38407,-22.38326 -22.65366,-34.9058 -3.41613,-6.8232 -7.3005,-14.13146 -8.63193,-16.24059 -3.42696,-5.42866 -8.03406,-17.42399 -11.0239,-28.70249 -5.91328,-22.3066 -2.24415,-48.44458 10.56043,-75.22992 4.48139,-9.37442 23.06514,-28.45273 31.55588,-32.39567 11.04608,-5.12959 19.40006,-4.38841 21.47723,1.90548 0.85158,2.5803 0.66956,4.50724 -0.91122,9.64668 -3.40639,11.07487 -3.89992,17.06168 -2.50835,30.42759 1.4201,13.63996 3.41537,22.56285 6.31554,28.24327 3.32941,6.52116 13.05287,19.49403 20.05081,26.75145 3.71234,3.85 9.81074,10.6 13.55199,15 7.60806,8.94766 16.44321,18.40049 36.45161,39 7.47905,7.7 17.86745,18.50364 23.08533,24.00809 40.889,43.134628 98.16553,102.771238 102.11197,106.319498 2.64727,2.38016 6.62714,7.04394 8.84415,10.36395 3.63054,5.43677 4.03094,6.65517 4.03094,12.26587 0,7.31527 -2.63169,15.70923 -7.38111,23.5426 -1.83407,3.025 -5.06365,8.65 -7.17684,12.5 -2.11319,3.85 -5.26718,9.25 -7.00886,12 -1.74168,2.75 -5.00049,8.65049 -7.24181,13.1122 -5.02008,9.99327 -8.71667,13.3878 -14.57911,13.3878 -4.15978,0 -4.53268,-0.30345 -21.19792,-17.25 z m 26.56705,12.6122 c 1.72417,-1.45079 4.96866,-6.28829 7.20998,-10.75 2.24132,-4.46171 5.50013,-10.3622 7.24181,-13.1122 1.74168,-2.75 4.89567,-8.15 7.00886,-12 2.11319,-3.85 5.34277,-9.475 7.17684,-12.5 4.25956,-7.02543 7.38111,-16.13601 7.38111,-21.5426 0,-5.1633 -5.53254,-14.02812 -12.87509,-20.62982 -3.94644,-3.54826 -61.22297,-63.18487 -102.11197,-106.319498 -5.21788,-5.50445 -15.60628,-16.30809 -23.08533,-24.00809 -20.0084,-20.59951 -28.84355,-30.05234 -36.45161,-39 -3.74125,-4.4 -9.83965,-11.15 -13.55199,-15 -6.9843,-7.24327 -16.71992,-20.22741 -20.03451,-26.7195 -2.99008,-5.85647 -4.82022,-14.1717 -6.41474,-29.14533 -1.56694,-14.71457 -1.0897,-21.67807 2.21051,-32.2541 2.01206,-6.44796 1.24021,-9.75509 -2.65314,-11.36776 -3.46404,-1.43486 -5.90906,-0.96238 -13.80959,2.66854 -8.19339,3.76552 -26.86843,23.01429 -31.27842,32.23935 -12.55081,26.25449 -16.083,50.1294 -10.53815,71.22992 2.95168,11.23237 7.55554,23.24355 11.00162,28.70249 1.33143,2.10913 5.2158,9.41739 8.63193,16.24059 6.26959,12.52254 14.24188,24.80661 22.65366,34.9058 6.23752,7.48878 20.48803,22.38936 71.26119,74.511958 23.96513,24.60207 47.71922,49.0779 65.02098,66.99657 37.18716,38.51312 48.41961,49.49148 50.63692,49.49148 1.22886,0 3.64496,-1.18701 5.36913,-2.6378 z m 630.85049,1.04479 c -2.5416,-1.80835 -5.0765,-5.36397 -8.3771,-11.75 -2.603,-5.03634 -5.514,-10.28199 -6.4689,-11.65699 -0.955,-1.375 -3.66889,-6.1 -6.03089,-10.5 -2.362,-4.4 -6.004,-10.65517 -8.0933,-13.90038 -7.5497,-11.72651 -10.1868,-25.34272 -6.3976,-33.03329 1.0659,-2.16351 9.8351,-12.08096 19.48699,-22.03878 9.6519,-9.95781 26.75,-27.76267 37.9957,-39.56634 11.24582,-11.80367 25.84032,-27.086218 32.43222,-33.961218 6.592,-6.875 16.5159,-17.22695 22.0532,-23.00433 5.5373,-5.77739 19.7981,-20.62739 31.6906,-33 11.8925,-12.37262 24.4783,-25.87067 27.9684,-29.99567 3.49,-4.125 10.0877,-11.47687 14.6614,-16.33749 4.5738,-4.86061 9.0836,-10.03561 10.0219,-11.5 0.9382,-1.46438 3.2422,-4.68751 5.1199,-7.16251 4.6834,-6.17322 9.7672,-17.61923 11.1067,-25.00626 0.6127,-3.37864 1.1712,-11.84691 1.2411,-18.81836 0.1048,-10.44644 -0.257,-13.92528 -2.0575,-19.7832 -2.804,-9.12268 -2.8212,-13.75573 -0.061,-16.51576 1.8729,-1.87289 2.9648,-2.069 9.25,-1.66125 4.0769,0.26449 8.6241,1.23791 10.6264,2.27481 1.925,0.99687 8.0195,6.35693 13.5434,11.91125 7.9361,7.97983 11.2345,12.21738 15.72,20.19599 7.6068,13.53029 9.0072,17.017 12.0102,29.90278 3.3957,14.57075 4.0299,22.13639 2.7766,33.12167 -1.7661,15.48032 -5.1322,25.04292 -17.2054,48.87833 -15.4304,30.4632 -21.5555,39.06414 -45.221,63.5 -7.1909,7.424998 -19.8272,20.474998 -28.0808,28.999998 -14.9238,15.41467 -32.5617,33.57992 -65.0563,67.00143 -9.3573,9.62422 -29.7791,30.66108 -45.3817,46.74858 -26.91552,27.75183 -28.55442,29.25 -31.99862,29.25 -2.3033,0 -4.9623,-0.94781 -7.2745,-2.59301 z m 37.27312,-28.65699 c 15.6026,-16.0875 36.0244,-37.12436 45.3817,-46.74858 32.4946,-33.42151 50.1325,-51.58676 65.0563,-67.00143 8.2536,-8.525 20.8899,-21.574998 28.0808,-28.999998 23.6655,-24.43586 29.7906,-33.0368 45.221,-63.5 18.3316,-36.19106 21.1091,-51.8482 14.1427,-79.72467 -2.818,-11.27616 -4.1654,-14.54084 -11.2569,-27.27533 -5.0427,-9.05521 -7.903,-12.78546 -16.1781,-21.09877 -11.0379,-11.08873 -14.2984,-13.2285 -21.447,-14.07514 -9.4066,-1.11408 -11.4874,2.48899 -7.9717,13.80353 1.9772,6.36336 2.2735,9.35152 2.1688,21.87038 -0.067,7.975 -0.6374,17.34326 -1.2683,20.81836 -1.3699,7.54533 -6.4191,18.95903 -11.1399,25.18164 -1.8777,2.475 -4.1817,5.69813 -5.1199,7.16251 -0.9383,1.46439 -5.4481,6.63939 -10.0219,11.5 -4.5737,4.86062 -11.1714,12.21249 -14.6614,16.33749 -3.4901,4.125 -16.0759,17.62305 -27.9684,29.99567 -11.8925,12.37261 -26.1533,27.22261 -31.6906,33 -5.5373,5.77738 -15.4612,16.12933 -22.0532,23.00433 -6.5919,6.875 -21.1864,22.157548 -32.43222,33.961218 -11.2457,11.80367 -28.3438,29.60853 -37.9957,39.56634 -17.89839,18.46569 -21.35779,23.27448 -21.12859,29.37027 0.2008,5.34237 3.8514,15.19714 8.0392,21.7018 2.0893,3.24521 5.7313,9.50038 8.0933,13.90038 2.36199,4.4 5.07589,9.125 6.03089,10.5 0.9549,1.375 3.8659,6.62065 6.4689,11.65699 4.6951,9.08428 9.7003,14.34301 13.6516,14.34301 0.8966,0 14.3959,-13.1625 29.99862,-29.25 z" />
  </g>
</svg>
